<svg width="197" height="41" viewBox="0 0 197 41" fill="none" xmlns="http://www.w3.org/2000/svg">
<g clip-path="url(#clip0_332_976)">
<g clip-path="url(#clip1_332_976)">
<path d="M176.288 27.3256L169.414 34.1735L176.288 41.0213L183.163 34.1735L176.288 27.3256Z" fill="#ADDCE7"/>
<path d="M169.414 34.1788L176.29 41.0263L183.165 34.1788H169.414Z" fill="#8BCFE0"/>
<path d="M183.154 20.4902L176.28 27.338L183.154 34.1859L190.029 27.338L183.154 20.4902Z" fill="#6CC6DA"/>
<path d="M176.28 27.3394L183.154 34.1868L190.031 27.3394H176.28Z" fill="#8BCFE0"/>
<path d="M183.122 20.4733H196.873L189.996 13.6259L183.122 20.4733Z" fill="#DC5097"/>
<path d="M183.155 6.81437L176.28 13.6622L183.155 20.5101L190.03 13.6622L183.155 6.81437Z" fill="#E88FBB"/>
<path d="M190.031 13.6605L183.154 20.508L176.28 13.6605H190.031Z" fill="#DF6DA7"/>
<path d="M183.122 20.5L189.996 27.3474L196.873 20.5H183.122Z" fill="#8BCFE0"/>
<path d="M176.293 -0.02241L169.418 6.82544L176.293 13.6733L183.167 6.82545L176.293 -0.02241Z" fill="#E88FBB"/>
<path d="M183.165 6.82104L176.29 13.6711L169.414 6.82104H183.165Z" fill="#F2B3D2"/>
<path d="M0 19.3689C0 11.3292 5.87769 4.77722 15.0896 4.77722C19.5647 4.77722 23.2917 6.35003 25.9233 9.1896L21.141 13.8654C19.6502 12.2048 17.6331 11.2015 15.0442 11.2015C10.2192 11.2015 7.01582 14.9592 7.01582 19.3716C7.01582 23.784 10.2619 27.5417 15.0442 27.5417C18.3785 27.5417 21.3173 25.9689 22.0173 22.7354H15.7014V17.5353H28.8594C28.9476 18.2352 28.9476 18.8899 28.9476 19.5898C28.9476 29.0266 22.4127 33.966 14.9988 33.966C5.87769 33.9633 0 27.4086 0 19.3689Z" fill="white"/>
<path d="M46.0328 21.0295C45.8138 18.9324 43.8394 17.5353 41.6459 17.5353C39.4525 17.5353 37.6545 18.8473 37.1281 21.0295H46.0328ZM30.6787 23.2144C30.6787 17.3144 34.8893 12.423 41.5578 12.423C48.2263 12.423 52.2605 17.0988 52.2605 23.1292C52.2605 23.6535 52.2178 24.396 52.1296 24.9203H37.04C37.609 27.193 39.4952 28.5901 42.215 28.5901C44.1012 28.5901 45.8992 27.9781 47.0828 26.5809L51.0315 29.9021C49.0572 32.4809 45.8111 33.9659 42.0841 33.9659C35.3301 33.9659 30.6787 29.2475 30.6787 23.2171" fill="white"/>
<path d="M70.0351 23.1718C70.0351 20.5079 67.9298 18.323 65.2101 18.323C62.4903 18.323 60.4278 20.5079 60.4278 23.1718C60.4278 25.8357 62.5331 28.0659 65.2101 28.0659C67.8871 28.0659 70.0351 25.8384 70.0351 23.1718ZM53.8047 23.1718C53.8047 17.2292 58.4988 12.423 65.2101 12.423C71.9213 12.423 76.6154 17.2292 76.6154 23.1718C76.6154 29.1144 71.9667 33.9632 65.2101 33.9632C58.4534 33.9632 53.8047 29.0692 53.8047 23.1718Z" fill="white"/>
<path d="M109.149 21.0295C108.93 18.9324 106.955 17.5353 104.762 17.5353C102.568 17.5353 100.77 18.8473 100.244 21.0295H109.149ZM93.7974 23.2144C93.7974 17.3144 98.0079 12.423 104.676 12.423C111.345 12.423 115.379 17.0988 115.379 23.1292C115.379 23.6535 115.336 24.396 115.248 24.9203H100.159C100.728 27.193 102.614 28.5901 105.334 28.5901C107.22 28.5901 109.018 27.9781 110.201 26.5809L114.15 29.9021C112.176 32.4809 108.93 33.9659 105.203 33.9659C98.4488 33.9659 93.7974 29.2475 93.7974 23.2171" fill="white"/>
<path d="M116.92 23.1719C116.92 17.0989 121.922 12.3805 128.149 12.3805C132.01 12.3805 135.299 14.0837 137.404 17.0989L132.622 20.5931C131.612 19.1082 130.121 18.3204 128.366 18.3204C125.603 18.3204 123.541 20.5479 123.541 23.1693C123.541 25.7906 125.603 28.0633 128.366 28.0633C130.164 28.0633 131.7 27.1904 132.707 25.6176L137.444 29.1571C135.382 32.2149 132.05 33.9633 128.144 33.9633C121.916 33.9633 116.915 29.1997 116.915 23.1719" fill="white"/>
<path d="M160.159 20.4174V33.5694H153.317V22.4267C153.317 20.0236 152.088 18.7116 150.071 18.7116C148.054 18.7116 146.517 20.0661 146.517 22.4693V33.5667H139.675V4.07727H146.079V15.3504C147.351 13.2959 149.502 12.423 152.133 12.423C156.916 12.423 160.162 15.4382 160.162 20.4174" fill="white"/>
<path d="M88.2427 12.8169V7.52893H81.4006V12.8169H77.6709V18.802H81.4006H88.2427H92.8914V12.8169H88.2427Z" fill="white"/>
<path d="M81.4004 33.5695H88.2426V18.8021L81.4004 23.6935V33.5695Z" fill="white"/>
</g>
</g>
<defs>
<clipPath id="clip0_332_976">
<rect width="197" height="41" fill="white"/>
</clipPath>
<clipPath id="clip1_332_976">
<rect width="196.873" height="41.0526" fill="white" transform="translate(0 -0.0263672)"/>
</clipPath>
</defs>
</svg>
